<svg xmlns="http://www.w3.org/2000/svg" version="1.1" xmlns:xlink="http://www.w3.org/1999/xlink" xmlns:svgjs="http://svgjs.dev/svgjs" width="2000" height="1500" viewBox="0 0 2000 1500"><rect width="2000" height="1500" fill="#ffffff"></rect><g transform="matrix(0.75,0,0,0.75,249.090909090909,494.12592792782846)"><svg viewBox="0 0 396 135" data-background-color="#ffffff" preserveAspectRatio="xMidYMid meet" height="681" width="2000" xmlns="http://www.w3.org/2000/svg" xmlns:xlink="http://www.w3.org/1999/xlink"><g id="tight-bounds" transform="matrix(1,0,0,1,0.2400000000000091,0.1319133230409193)"><svg viewBox="0 0 395.52 133.42957794829292" height="133.42957794829292" width="395.52"><g><svg viewBox="0 0 625.8085014633003 211.11793139841683" height="133.42957794829292" width="395.52"><g transform="matrix(1,0,0,1,230.28850146330038,65.238505157112)"><svg viewBox="0 0 395.52 80.64092108419284" height="80.64092108419284" width="395.52"><g id="textblocktransform"><svg viewBox="0 0 395.52 80.64092108419284" height="80.64092108419284" width="395.52" id="textblock"><g><svg viewBox="0 0 395.52 80.64092108419284" height="80.64092108419284" width="395.52"><g transform="matrix(1,0,0,1,0,0)"><svg width="395.52" viewBox="4.1 -32.35 208.43 42.5" height="80.64092108419284" data-palette-color="#e65a41"><path d="M20.9-11.1L25.5 0 20 0 15.7-10.65Q15.1-12.1 14.23-12.58 13.35-13.05 11.55-13.05L11.55-13.05 9.2-13.05 9.2 0 4.1 0 4.1-30.65 14.35-30.65Q19.8-30.65 22-27.98 24.2-25.3 24.2-21.5L24.2-21.5Q24.2-18.7 22.88-16.53 21.55-14.35 18.3-13.5L18.3-13.5Q20.1-12.85 20.9-11.1L20.9-11.1ZM9.2-14.9L13.8-14.9Q16.5-14.9 17.8-16.82 19.1-18.75 19.1-21.5L19.1-21.5Q19.1-24.55 17.8-26.65 16.5-28.75 13.8-28.75L13.8-28.75 9.2-28.75 9.2-14.9ZM50.4-11.7L34.9-11.7 34.9-11.6Q34.9-6.3 36.17-4.1 37.45-1.9 40.55-1.9L40.55-1.9Q45.65-1.9 45.9-7.15L45.9-7.15 50.05-6.95Q49.7-3.45 47.5-1.43 45.3 0.6 40.4 0.6L40.4 0.6Q34.75 0.6 32.3-2.53 29.85-5.65 29.85-12L29.85-12Q29.85-17.7 32.17-21.15 34.5-24.6 40.35-24.6L40.35-24.6Q46-24.6 48.2-21.18 50.4-17.75 50.4-12.2L50.4-12.2 50.4-11.7ZM40.25-22.1Q37.6-22.1 36.4-20.15 35.2-18.2 34.95-14.2L34.95-14.2 45.5-14.2Q45.35-18.1 44.17-20.1 43-22.1 40.25-22.1L40.25-22.1ZM70.45-31.7L75.5-32.35 75.5 0 72.45 0 71-2.7Q68.25 0.6 64 0.6L64 0.6Q54.95 0.6 54.95-11.8L54.95-11.8Q54.95-24.6 64.59-24.6L64.59-24.6Q67.65-24.6 70.45-22.8L70.45-22.8 70.45-31.7ZM65.4-1.9Q68.4-1.9 70.45-4.7L70.45-4.7 70.45-20.25Q68.3-21.85 65.8-21.85L65.8-21.85Q62.95-21.85 61.47-19.3 60-16.75 60-11.8L60-11.8Q60-6.9 61.37-4.4 62.75-1.9 65.4-1.9L65.4-1.9ZM112.84 0L109.89-9.15 97.69-9.15 94.79 0 91.89 0 101.79-30.65 107.89-30.65 117.79 0 112.84 0ZM98.49-11.6L109.09-11.6 103.79-28.25 98.49-11.6ZM133.39-24.6Q138.69-24.6 140.79-21.15 142.89-17.7 142.89-12L142.89-12Q142.89-6.35 140.74-2.88 138.59 0.6 133.14 0.6L133.14 0.6Q130.29 0.6 127.39-0.5L127.39-0.5 127.39 9.5 122.34 10.15 122.34-24 124.59-24 126.44-21.95Q127.94-23.15 129.76-23.88 131.59-24.6 133.39-24.6L133.39-24.6ZM131.94-1.9Q135.14-1.9 136.51-4.55 137.89-7.2 137.89-12L137.89-12Q137.89-16.35 136.51-19.07 135.14-21.8 132.09-21.8L132.09-21.8Q129.74-21.8 127.39-20.15L127.39-20.15 127.39-2.75Q129.39-1.9 131.94-1.9L131.94-1.9ZM153.94-19.45Q155.09-21.6 157.16-22.9 159.24-24.2 162.14-24.2L162.14-24.2 162.14-20.5Q154.44-20.5 154.44-14.5L154.44-14.5 154.39-14.5 154.39 0 149.34 0 149.34-24 151.54-24 153.94-19.45ZM175.33 0.6Q169.28 0.6 166.91-2.88 164.53-6.35 164.53-12L164.53-12Q164.53-17.7 166.91-21.15 169.28-24.6 175.33-24.6L175.33-24.6Q181.33-24.6 183.73-21.13 186.13-17.65 186.13-12L186.13-12Q186.13 0.6 175.33 0.6L175.33 0.6ZM175.33-1.9Q178.63-1.9 179.86-4.55 181.08-7.2 181.08-12L181.08-12Q181.08-16.85 179.88-19.48 178.68-22.1 175.33-22.1L175.33-22.1Q171.98-22.1 170.78-19.5 169.58-16.9 169.58-12L169.58-12Q169.58-7.15 170.78-4.53 171.98-1.9 175.33-1.9L175.33-1.9ZM204.83-24.6Q212.53-24.6 212.53-16.95L212.53-16.95 212.53 0 207.48 0 207.48-16.55Q207.48-19.25 206.53-20.53 205.58-21.8 203.53-21.8L203.53-21.8Q200.48-21.8 197.53-19.5L197.53-19.5 197.53 0 192.48 0 192.48-24 194.68-24 196.68-21.5Q198.48-22.9 200.66-23.75 202.83-24.6 204.83-24.6L204.83-24.6Z" opacity="1" transform="matrix(1,0,0,1,0,0)" fill="#e65a41" class="wordmark-text-0" data-fill-palette-color="primary" id="text-0"></path></svg></g></svg></g></svg></g></svg></g><g><svg viewBox="0 0 211.25111537742848 211.11793139841683" height="211.11793139841683" width="211.25111537742848"><g><svg xmlns="http://www.w3.org/2000/svg" xmlns:xlink="http://www.w3.org/1999/xlink" version="1.1" x="0" y="0" viewBox="-0.000015038932388904136 0.03199996179706588 100.00004540449375 99.93700003820292" style="enable-background:new 0 0 100 100;" xml:space="preserve" id="icon-0" width="211.25111537742848" height="211.11793139841683" class="icon-icon-0" data-fill-palette-color="accent"><g fill="#f4806b" data-fill-palette-color="accent"><path d="M49.85 65.003C46.067 65.003 42.697 63.564 39.834 60.729 34.122 55.07 31.523 44.593 31.523 37.252A1.682 1.682 0 1 1 34.885 37.252C34.886 44.129 37.4 53.58 42.201 58.337 44.439 60.554 47.029 61.66 49.959 61.637 61.259 61.53 65.062 44.846 65.062 37.251A1.682 1.682 0 1 1 68.427 37.252C68.427 46.25 63.92 64.87 49.99 65z" fill="#f4806b" data-fill-palette-color="accent"></path><path d="M16.434 99.968C15.504 99.968 14.752 99.215 14.752 98.286 14.752 88.407 17.332 79.386 21.83 73.53 24.385 70.187 28.146 69.674 31.463 69.22 34.153 68.852 36.694 68.506 38.483 66.783 39.725 65.583 39.669 63.097 39.453 59.72A1.684 1.684 0 0 1 41.027 57.932C41.933 57.88 42.755 58.58 42.814 59.506 43.042 63.104 43.277 66.826 40.819 69.204 38.237 71.692 34.881 72.15 31.92 72.554 28.86 72.975 26.216 73.334 24.503 75.58 20.443 80.859 18.116 89.134 18.116 98.286A1.68 1.68 0 0 1 16.434 99.968" fill="#f4806b" data-fill-palette-color="accent"></path><path d="M83.572 99.968C82.642 99.968 81.89 99.215 81.89 98.286 81.89 89.118 79.545 80.846 75.456 75.59 73.756 73.33 71.123 72.97 68.077 72.555 65.119 72.15 61.767 71.692 59.189 69.208 56.725 66.895 56.953 63.25 57.192 59.392 57.252 58.465 58.062 57.78 58.977 57.816A1.685 1.685 0 0 1 60.553 59.601C60.354 62.78 60.18 65.525 61.508 66.769 63.312 68.506 65.847 68.852 68.533 69.22 71.846 69.673 75.6 70.188 78.128 73.546 82.652 79.358 85.254 88.383 85.254 98.285 85.254 99.216 84.5 99.969 83.572 99.969" fill="#f4806b" data-fill-palette-color="accent"></path><path d="M83.572 99.968H16.434A1.682 1.682 0 1 1 16.434 96.603H83.572A1.682 1.682 0 1 1 83.572 99.968" fill="#f4806b" data-fill-palette-color="accent"></path><path d="M49.974 78.523C49.811 78.523 49.644 78.497 49.48 78.446 45.46 77.208 41.192 74.53 36.8 70.489A1.683 1.683 0 0 1 39.077 68.013C43.098 71.713 46.932 74.14 50.47 75.231A1.684 1.684 0 0 1 49.975 78.523" fill="#f4806b" data-fill-palette-color="accent"></path><path d="M33.204 38.935A1.682 1.682 0 0 1 32.524 35.712C43.647 30.805 56.367 30.805 67.427 35.714A1.681 1.681 0 1 1 66.063 38.789C55.866 34.266 44.136 34.264 33.884 38.791A1.7 1.7 0 0 1 33.204 38.935" fill="#f4806b" data-fill-palette-color="accent"></path><path d="M33.204 38.935C32.274 38.935 31.522 38.18 31.522 37.252V5.252A1.682 1.682 0 1 1 34.886 5.252V37.252C34.886 38.18 34.134 38.935 33.204 38.935" fill="#f4806b" data-fill-palette-color="accent"></path><path d="M49.974 78.523A1.683 1.683 0 0 1 49.487 75.229C53.018 74.16 56.764 71.794 60.936 68.005A1.684 1.684 0 0 1 63.2 70.497C58.648 74.63 54.482 77.23 50.462 78.447A1.6 1.6 0 0 1 49.974 78.524" fill="#f4806b" data-fill-palette-color="accent"></path><path d="M66.745 38.935C65.815 38.935 65.062 38.18 65.062 37.252V5.252A1.682 1.682 0 1 1 68.427 5.252V37.252C68.427 38.18 67.674 38.935 66.745 38.935" fill="#f4806b" data-fill-palette-color="accent"></path><path d="M49.974 99.968A1.68 1.68 0 0 1 48.292 98.286V76.838A1.682 1.682 0 1 1 51.657 76.838V98.286C51.657 99.216 50.904 99.968 49.974 99.968" fill="#f4806b" data-fill-palette-color="accent"></path><path d="M45.07 90.099C44.14 90.099 43.387 89.346 43.387 88.417V86.705A1.682 1.682 0 1 1 46.752 86.705V88.417C46.752 89.347 45.999 90.099 45.07 90.099" fill="#f4806b" data-fill-palette-color="accent"></path><path d="M46.07 54.527C44.887 54.527 43.678 54.21 42.462 53.572A1.683 1.683 0 0 1 44.026 50.592C45.818 51.533 47.265 51.33 48.854 49.916A1.682 1.682 0 1 1 51.094 52.426C49.527 53.823 47.83 54.526 46.07 54.526" fill="#f4806b" data-fill-palette-color="accent"></path><path d="M53.922 54.527C52.177 54.527 50.472 53.829 48.872 52.442A1.683 1.683 0 0 1 51.077 49.899C52.697 51.304 54.186 51.52 55.909 50.6A1.673 1.673 0 0 1 58.187 51.286C58.627 52.106 58.32 53.126 57.5 53.564 56.304 54.206 55.105 54.527 53.922 54.527" fill="#f4806b" data-fill-palette-color="accent"></path><path d="M85.456 55.647A1.68 1.68 0 0 1 83.931 54.682 1.685 1.685 0 0 1 84.737 52.442C88.618 50.612 94.761 45.925 95.844 44.846 96.353 44.336 96.634 43.655 96.634 42.926 96.634 42.2 96.353 41.519 95.844 41.009 94.755 39.958 93.06 39.95 92.004 41.008 90.834 42.179 86.142 48.266 84.417 52.04A1.684 1.684 0 0 1 82.187 52.872 1.685 1.685 0 0 1 81.354 50.642C83.248 46.502 88.147 40.109 89.625 38.629 91.997 36.257 95.768 36.252 98.201 38.61A6.06 6.06 0 0 1 100 42.926 6.04 6.04 0 0 1 98.222 47.225C96.763 48.683 90.31 53.536 86.172 55.488A1.7 1.7 0 0 1 85.456 55.647" fill="#f4806b" data-fill-palette-color="accent"></path><path d="M88.876 62.515C88.036 62.515 87 62.315 85.733 61.772 83.693 60.902 81.47 59.32 79.473 57.322A1.68 1.68 0 0 1 79.473 54.942 1.675 1.675 0 0 1 81.85 54.943C85.423 58.513 88.655 59.483 89.235 59.098 89.412 58.83 89.288 56.83 86.76 53.64A1.682 1.682 0 1 1 89.396 51.55C92.71 55.73 93.556 59.536 91.606 61.485 91.146 61.945 90.291 62.515 88.875 62.515" fill="#f4806b" data-fill-palette-color="accent"></path><path d="M80.547 71.845A1.682 1.682 0 0 1 79.358 68.972L89.229 59.105A1.682 1.682 0 1 1 91.605 61.487L81.735 71.354A1.68 1.68 0 0 1 80.547 71.845" fill="#f4806b" data-fill-palette-color="accent"></path><path d="M68.055 56.502A1.682 1.682 0 0 1 66.866 53.629L75.31 45.189A1.682 1.682 0 1 1 77.687 47.569L69.243 56.01A1.68 1.68 0 0 1 68.055 56.502" fill="#f4806b" data-fill-palette-color="accent"></path><path d="M80.661 57.814C80.231 57.814 79.801 57.651 79.471 57.321 75.424 53.273 72.693 47.804 75.307 45.19 77.319 43.268 81.137 44.152 85.3 47.454A1.682 1.682 0 1 1 83.211 50.091C80.228 47.726 78.05 47.361 77.644 47.608 77.323 48.15 78.288 51.377 81.852 54.943A1.682 1.682 0 0 1 80.662 57.814" fill="#f4806b" data-fill-palette-color="accent"></path><path d="M18.657 72.759C18.309 72.759 17.957 72.65 17.654 72.427 15.46 70.796 13.473 69.067 11.747 67.287 4.517 60.1 0.007 51.708 0 45.41-0.004 42.816 0.79 40.648 2.297 39.142 7.574 33.929 19.967 38.065 30.512 48.551 30.775 48.846 30.972 49.056 31.17 49.266 31.402 49.512 31.634 49.76 31.85 50.01A1.683 1.683 0 0 1 29.311 52.218C29.123 52.002 28.918 51.785 28.716 51.569A28 28 0 0 1 28.06 50.852C18.305 41.162 8.065 38.178 4.67 41.53 3.801 42.394 3.361 43.7 3.363 45.405 3.372 50.76 7.603 58.42 14.143 64.922 15.764 66.594 17.613 68.204 19.663 69.727A1.683 1.683 0 0 1 18.657 72.759" fill="#f4806b" data-fill-palette-color="accent"></path><path d="M11.417 55.535C11.27 55.535 11.122 55.515 10.975 55.474A1.68 1.68 0 0 1 9.792 53.41L12.131 44.797A1.682 1.682 0 1 1 15.377 45.679L13.038 54.29A1.68 1.68 0 0 1 11.418 55.535" fill="#f4806b" data-fill-palette-color="accent"></path><path d="M17.407 64.148C17.26 64.148 17.116 64.128 16.97 64.088A1.68 1.68 0 0 1 15.78 62.03L19.2 49.252A1.69 1.69 0 0 1 21.261 48.062 1.68 1.68 0 0 1 22.45 50.12L19.03 62.898C18.83 63.651 18.15 64.148 17.407 64.148" fill="#f4806b" data-fill-palette-color="accent"></path><path d="M24.764 67.797A1.685 1.685 0 0 1 23.134 65.683L25.76 55.813A1.69 1.69 0 0 1 27.818 54.62 1.685 1.685 0 0 1 29.013 56.68L26.389 66.547A1.68 1.68 0 0 1 24.764 67.797" fill="#f4806b" data-fill-palette-color="accent"></path><path d="M27.73 99.968C26.8 99.968 26.047 99.215 26.047 98.286V89.844A1.682 1.682 0 1 1 29.412 89.844V98.286C29.412 99.216 28.659 99.968 27.73 99.968" fill="#f4806b" data-fill-palette-color="accent"></path><path d="M72.276 99.968C71.346 99.968 70.594 99.215 70.594 98.286V89.844A1.682 1.682 0 1 1 73.96 89.844V98.286A1.683 1.683 0 0 1 72.276 99.968" fill="#f4806b" data-fill-palette-color="accent"></path><path d="M33.204 6.935A1.682 1.682 0 0 1 32.524 3.712C43.647-1.195 56.367-1.195 67.427 3.714A1.681 1.681 0 1 1 66.063 6.79C55.866 2.266 44.136 2.264 33.884 6.792A1.7 1.7 0 0 1 33.204 6.935" fill="#f4806b" data-fill-palette-color="accent"></path><path d="M49.974 35.398A1.68 1.68 0 0 1 48.292 33.715V8.617A1.682 1.682 0 1 1 51.657 8.617V33.715C51.657 34.645 50.904 35.398 49.974 35.398" fill="#f4806b" data-fill-palette-color="accent"></path><path d="M41.133 36.311A1.68 1.68 0 0 1 39.451 34.628V12.04A1.682 1.682 0 1 1 42.816 12.04V34.63C42.816 35.557 42.063 36.31 41.133 36.31" fill="#f4806b" data-fill-palette-color="accent"></path><path d="M58.872 36.311C57.942 36.311 57.19 35.558 57.19 34.628V12.04A1.682 1.682 0 1 1 60.555 12.04V34.63C60.555 35.557 59.802 36.31 58.872 36.31" fill="#f4806b" data-fill-palette-color="accent"></path></g></svg></g></svg></g></svg></g><defs></defs></svg><rect width="395.52" height="133.42957794829292" fill="none" stroke="none" visibility="hidden"></rect></g></svg></g></svg>